<?xml version="1.0" encoding="UTF-8"?>
<svg version="1.1" xmlns="http://www.w3.org/2000/svg" width="150" height="150">
<path d="M0 0 C7.60493526 -0.22690716 14.82895321 0.65390687 22.34765625 1.75 C23.60009628 1.92756836 24.85253632 2.10513672 26.14292908 2.28808594 C29.44296578 2.75708929 32.74213945 3.23144388 36.04101562 3.70849609 C39.41927079 4.19565028 42.79854434 4.67563148 46.17773438 5.15625 C52.78610578 6.09761831 59.39343164 7.04606457 66 8 C68.76463734 21.65451632 71.51808408 35.30785059 73.94067383 49.02783203 C74.32454162 51.19291695 74.7179649 53.35615349 75.11132812 55.51953125 C75.36255061 56.93219016 75.61322487 58.34494671 75.86328125 59.7578125 C76.08282471 60.9864502 76.30236816 62.21508789 76.52856445 63.48095703 C77.00913933 67.06822077 77.2553303 70.38742511 77 74 C74.5625 75.8125 74.5625 75.8125 72 77 C71.67 77.66 71.34 78.32 71 79 C71.53625 79.226875 72.0725 79.45375 72.625 79.6875 C75.91251435 81.50428425 78.39371058 83.27248782 81 86 C80.75798508 91.24099846 79.12809721 95.70644516 77.05859375 100.46484375 C76.77146011 101.14301651 76.48432648 101.82118927 76.18849182 102.51991272 C75.27924302 104.66250711 74.35860753 106.79998089 73.4375 108.9375 C72.8149928 110.39876398 72.1932405 111.86034981 71.57226562 113.32226562 C70.05687705 116.88528976 68.53126419 120.44377147 67 124 C53.33214692 124.09225513 53.33214692 124.09225513 47.1875 123.5 C46.19105469 123.4071875 45.19460937 123.314375 44.16796875 123.21875 C43.45253906 123.1465625 42.73710938 123.074375 42 123 C41.67 125.97 41.34 128.94 41 132 C37.91767296 132.67163546 34.83428775 133.33748246 31.75 134 C30.87730469 134.19078125 30.00460938 134.3815625 29.10546875 134.578125 C28.26113281 134.75859375 27.41679688 134.9390625 26.546875 135.125 C25.77182617 135.29257813 24.99677734 135.46015625 24.19824219 135.6328125 C22 136 22 136 18 136 C17.9175 136.7425 17.835 137.485 17.75 138.25 C16.823839 141.64592366 15.73818952 142.81290715 13 145 C10.25097656 145.45410156 10.25097656 145.45410156 7.140625 145.390625 C6.02558594 145.37773437 4.91054688 145.36484375 3.76171875 145.3515625 C2.02341797 145.30128906 2.02341797 145.30128906 0.25 145.25 C-0.92433594 145.23195312 -2.09867188 145.21390625 -3.30859375 145.1953125 C-6.2065534 145.1481912 -9.10286418 145.08241305 -12 145 C-12.14682572 137.74130336 -11.31580009 131.15466301 -10 124 C-6.04 123.01 -2.08 122.02 2 121 C1.319375 119.948125 0.63875 118.89625 -0.0625 117.8125 C-1.5184903 115.56233317 -2.00476681 114.3575108 -1.96875 111.65625 C-0.61203645 107.93622899 1.85081804 105.47366012 4.5625 102.6875 C5.08263672 102.13771484 5.60277344 101.58792969 6.13867188 101.02148438 C7.41708817 99.67269654 8.70739433 98.33519564 10 97 C4.27401012 90.09944809 -1.84869348 83.62621775 -8.6875 77.8125 C-12.74172449 74.28780687 -16.67832525 70.64782134 -20.5625 66.9375 C-21.20727295 66.34751221 -21.8520459 65.75752441 -22.51635742 65.1496582 C-23.11037354 64.57304443 -23.70438965 63.99643066 -24.31640625 63.40234375 C-24.85724854 62.89179443 -25.39809082 62.38124512 -25.95532227 61.85522461 C-27.53772331 59.04506673 -26.68308456 57.08964539 -26 54 C-24.98207092 51.45188904 -24.98207092 51.45188904 -23.71508789 48.90014648 C-23.24112076 47.93572128 -22.76715363 46.97129608 -22.27882385 45.97764587 C-21.76528854 44.95248367 -21.25175323 43.92732147 -20.72265625 42.87109375 C-20.19610947 41.8038356 -19.66956268 40.73657745 -19.12705994 39.63697815 C-17.44623017 36.23345306 -15.75480302 32.83533279 -14.0625 29.4375 C-12.37584904 26.03510545 -10.69140957 22.63163179 -9.00865173 19.22731018 C-7.96186613 17.11132619 -6.91245466 14.99663871 -5.86012268 12.88340759 C-5.38300339 11.92213455 -4.90588409 10.96086151 -4.41430664 9.97045898 C-3.99540665 9.12917953 -3.57650665 8.28790009 -3.14491272 7.42112732 C-1.991354 4.98171646 -0.97551697 2.51528655 0 0 Z " fill="#96FDFD" transform="translate(45,5)"/>
<path d="M0 0 C7.60493526 -0.22690716 14.82895321 0.65390687 22.34765625 1.75 C23.60009628 1.92756836 24.85253632 2.10513672 26.14292908 2.28808594 C29.44296578 2.75708929 32.74213945 3.23144388 36.04101562 3.70849609 C39.41927079 4.19565028 42.79854434 4.67563148 46.17773438 5.15625 C52.78610578 6.09761831 59.39343164 7.04606457 66 8 C68.76463734 21.65451632 71.51808408 35.30785059 73.94067383 49.02783203 C74.32454162 51.19291695 74.7179649 53.35615349 75.11132812 55.51953125 C75.36255061 56.93219016 75.61322487 58.34494671 75.86328125 59.7578125 C76.08282471 60.9864502 76.30236816 62.21508789 76.52856445 63.48095703 C77.00913933 67.06822077 77.2553303 70.38742511 77 74 C74.5625 75.8125 74.5625 75.8125 72 77 C71.67 77.66 71.34 78.32 71 79 C71.53625 79.226875 72.0725 79.45375 72.625 79.6875 C75.91251435 81.50428425 78.39371058 83.27248782 81 86 C80.75798508 91.24099846 79.12809721 95.70644516 77.05859375 100.46484375 C76.77146011 101.14301651 76.48432648 101.82118927 76.18849182 102.51991272 C75.27924302 104.66250711 74.35860753 106.79998089 73.4375 108.9375 C72.8149928 110.39876398 72.1932405 111.86034981 71.57226562 113.32226562 C70.05687705 116.88528976 68.53126419 120.44377147 67 124 C53.33214692 124.09225513 53.33214692 124.09225513 47.1875 123.5 C46.19105469 123.4071875 45.19460937 123.314375 44.16796875 123.21875 C43.45253906 123.1465625 42.73710938 123.074375 42 123 C41.67 125.97 41.34 128.94 41 132 C37.91767296 132.67163546 34.83428775 133.33748246 31.75 134 C30.87730469 134.19078125 30.00460938 134.3815625 29.10546875 134.578125 C28.26113281 134.75859375 27.41679688 134.9390625 26.546875 135.125 C25.77182617 135.29257813 24.99677734 135.46015625 24.19824219 135.6328125 C22 136 22 136 18 136 C17.9175 136.7425 17.835 137.485 17.75 138.25 C16.823839 141.64592366 15.73818952 142.81290715 13 145 C10.25097656 145.45410156 10.25097656 145.45410156 7.140625 145.390625 C6.02558594 145.37773437 4.91054688 145.36484375 3.76171875 145.3515625 C2.02341797 145.30128906 2.02341797 145.30128906 0.25 145.25 C-0.92433594 145.23195312 -2.09867188 145.21390625 -3.30859375 145.1953125 C-6.2065534 145.1481912 -9.10286418 145.08241305 -12 145 C-12.14682572 137.74130336 -11.31580009 131.15466301 -10 124 C-6.04 123.01 -2.08 122.02 2 121 C1.319375 119.948125 0.63875 118.89625 -0.0625 117.8125 C-1.5184903 115.56233317 -2.00476681 114.3575108 -1.96875 111.65625 C-0.61203645 107.93622899 1.85081804 105.47366012 4.5625 102.6875 C5.08263672 102.13771484 5.60277344 101.58792969 6.13867188 101.02148438 C7.41708817 99.67269654 8.70739433 98.33519564 10 97 C4.27401012 90.09944809 -1.84869348 83.62621775 -8.6875 77.8125 C-12.74172449 74.28780687 -16.67832525 70.64782134 -20.5625 66.9375 C-21.20727295 66.34751221 -21.8520459 65.75752441 -22.51635742 65.1496582 C-23.11037354 64.57304443 -23.70438965 63.99643066 -24.31640625 63.40234375 C-24.85724854 62.89179443 -25.39809082 62.38124512 -25.95532227 61.85522461 C-27.53772331 59.04506673 -26.68308456 57.08964539 -26 54 C-24.98207092 51.45188904 -24.98207092 51.45188904 -23.71508789 48.90014648 C-23.24112076 47.93572128 -22.76715363 46.97129608 -22.27882385 45.97764587 C-21.76528854 44.95248367 -21.25175323 43.92732147 -20.72265625 42.87109375 C-20.19610947 41.8038356 -19.66956268 40.73657745 -19.12705994 39.63697815 C-17.44623017 36.23345306 -15.75480302 32.83533279 -14.0625 29.4375 C-12.37584904 26.03510545 -10.69140957 22.63163179 -9.00865173 19.22731018 C-7.96186613 17.11132619 -6.91245466 14.99663871 -5.86012268 12.88340759 C-5.38300339 11.92213455 -4.90588409 10.96086151 -4.41430664 9.97045898 C-3.99540665 9.12917953 -3.57650665 8.28790009 -3.14491272 7.42112732 C-1.991354 4.98171646 -0.97551697 2.51528655 0 0 Z M2 3 C1.32517578 4.34964844 1.32517578 4.34964844 0.63671875 5.7265625 C0.18026978 6.6393396 0.18026978 6.6393396 -0.28540039 7.57055664 C-0.98406445 8.96805083 -1.68245929 10.36567964 -2.38061523 11.76342773 C-4.49230015 15.98997713 -6.60977166 20.21352193 -8.734375 24.43359375 C-11.50776728 29.94676144 -14.25796495 35.47118322 -17 41 C-17.5885376 42.17780029 -17.5885376 42.17780029 -18.18896484 43.37939453 C-19.22211889 45.45529848 -20.23899277 47.53824124 -21.25 49.625 C-21.81203125 50.77226563 -22.3740625 51.91953125 -22.953125 53.1015625 C-24.11173627 56.30935938 -24.26425966 56.9377281 -23 60 C-21.2875124 61.98003516 -19.58173293 63.79101209 -17.71484375 65.61328125 C-17.18033096 66.14592087 -16.64581818 66.67856049 -16.09510803 67.2273407 C-14.96118377 68.35454639 -13.8236693 69.47815028 -12.68286133 70.59838867 C-10.96125613 72.28916922 -9.25023613 73.99006938 -7.54101562 75.69335938 C2.26776052 86.14308201 2.26776052 86.14308201 14 94 C16.66169042 92.5404226 16.66169042 92.5404226 19 90 C18.70222656 88.18242187 18.70222656 88.18242187 18.3984375 86.328125 C18.33300781 84.1796875 18.33300781 84.1796875 19 82 C22.63785725 78.76070328 26.85954875 76.55301484 31.125 74.25 C33.39882926 72.96423424 35.67227869 71.67779647 37.9453125 70.390625 C38.96125488 69.83407227 39.97719727 69.27751953 41.02392578 68.70410156 C44.12525297 66.92828009 47.0488429 65.01287713 50 63 C54.78042858 65.07452561 58.40159827 68.57058315 62.34375 71.90625 C64.55860025 73.65207314 66.36075416 75.04129959 69 76 C71.89185275 75.29885344 71.89185275 75.29885344 74 73 C74.45657047 66.57397488 73.42528932 60.50250063 72.3203125 54.18359375 C72.06107498 52.66065453 72.06107498 52.66065453 71.79660034 51.10694885 C71.43152727 48.97090286 71.06323494 46.83540483 70.69189453 44.70043945 C70.12638984 41.44549966 69.57217268 38.18878639 69.01953125 34.93164062 C68.66212453 32.8488439 68.30407329 30.76615766 67.9453125 28.68359375 C67.78064484 27.71675156 67.61597717 26.74990936 67.44631958 25.75376892 C66.56627622 20.72355315 65.51304825 15.87850826 64 11 C33.20683455 4.80349207 33.20683455 4.80349207 2 3 Z " fill="#060C0C" transform="translate(45,5)"/>
<path d="M0 0 C2.18985241 1.22584387 4.17178791 2.44831726 6.13330078 4.01416016 C7.05755859 4.71798828 7.05755859 4.71798828 8.00048828 5.43603516 C9.25830078 7.26416016 9.25830078 7.26416016 9.00708008 9.9453125 C8.18810815 13.57527805 6.97757677 16.76356674 5.53564453 20.19384766 C5.27070694 20.82904327 5.00576935 21.46423889 4.73280334 22.11868286 C3.89309636 24.1280685 3.04461844 26.13360859 2.19580078 28.13916016 C1.62164734 29.50870641 1.04807372 30.8784959 0.47509766 32.24853516 C-0.92380767 35.58991572 -2.33059865 38.92790844 -3.74169922 42.26416016 C-16.162878 41.77604765 -28.41830738 40.90834326 -40.74169922 39.26416016 C-41.27491184 37.03792214 -41.79280041 34.80801012 -42.30419922 32.57666016 C-42.59423828 31.33529297 -42.88427734 30.09392578 -43.18310547 28.81494141 C-43.73254534 25.32234809 -43.90883993 23.55355118 -42.74169922 20.26416016 C-40.35595703 18.52246094 -40.35595703 18.52246094 -37.19482422 16.95947266 C-35.46039063 16.08355469 -35.46039063 16.08355469 -33.69091797 15.18994141 C-32.45815414 14.58904647 -31.22507991 13.98878792 -29.99169922 13.38916016 C-27.6213874 12.20530519 -25.25159436 11.02041096 -22.88232422 9.83447266 C-21.70347656 9.25600586 -20.52462891 8.67753906 -19.31005859 8.08154297 C-16.86453594 6.86179791 -14.4880322 5.56406482 -12.12646484 4.18896484 C-10.98371094 3.53057617 -9.84095703 2.8721875 -8.66357422 2.19384766 C-7.64360352 1.58524902 -6.62363281 0.97665039 -5.57275391 0.34960938 C-2.74169922 -0.73583984 -2.74169922 -0.73583984 0 0 Z " fill="#57FBFB" transform="translate(113.74169921875,84.73583984375)"/>
<path d="M0 0 C1.43229167 1.30208333 2.86458333 2.60416667 4.296875 3.90625 C6.22360515 5.36024492 6.22360515 5.36024492 10 5 C11.32 10.61 12.64 16.22 14 22 C19.94 22.99 19.94 22.99 26 24 C26 26.64 26 29.28 26 32 C13.13 34.475 13.13 34.475 0 37 C-4.875 28.1875 -4.875 28.1875 -6.40185547 25.42260742 C-6.80291504 24.69920166 -7.20397461 23.9757959 -7.6171875 23.23046875 C-8.02565918 22.49207764 -8.43413086 21.75368652 -8.85498047 20.99291992 C-9.83486846 19.28741338 -10.90892671 17.63660994 -12 16 C-11.69362602 12.46601177 -10.02578465 10.56360116 -7.6875 8 C-6.74777344 6.96359375 -6.74777344 6.96359375 -5.7890625 5.90625 C-3.90008801 3.89354356 -1.99145538 1.91179716 0 0 Z " fill="#58FCFC" transform="translate(58,103)"/>
<path d="M0 0 C2.96321153 1.5785985 5.21703806 3.50765356 7.69555664 5.76953125 C8.57856445 6.56359375 9.46157227 7.35765625 10.37133789 8.17578125 C12.38305664 10.26953125 12.38305664 10.26953125 12.38305664 12.26953125 C11.77010742 12.58591553 11.1571582 12.9022998 10.52563477 13.22827148 C-5.8434543 21.68144959 -5.8434543 21.68144959 -21.91772461 30.67749023 C-26.41277542 33.26953125 -26.41277542 33.26953125 -28.61694336 33.26953125 C-29.12500783 31.54271688 -29.62304803 29.81295146 -30.11694336 28.08203125 C-30.39538086 27.11910156 -30.67381836 26.15617187 -30.96069336 25.1640625 C-31.60931705 22.30316872 -31.94548454 20.18064488 -31.61694336 17.26953125 C-30.00854492 15.69726562 -30.00854492 15.69726562 -27.75756836 14.36328125 C-26.93450195 13.86054687 -26.11143555 13.3578125 -25.26342773 12.83984375 C-24.39008789 12.32164063 -23.51674805 11.8034375 -22.61694336 11.26953125 C-20.92224334 10.1788698 -19.22953714 9.08510419 -17.53881836 7.98828125 C-15.8163189 6.91302401 -14.09235107 5.84011555 -12.36694336 4.76953125 C-11.49553711 4.2075 -10.62413086 3.64546875 -9.72631836 3.06640625 C-8.88069336 2.545625 -8.03506836 2.02484375 -7.16381836 1.48828125 C-6.40939453 1.01326172 -5.6549707 0.53824219 -4.87768555 0.04882812 C-2.61694336 -0.73046875 -2.61694336 -0.73046875 0 0 Z " fill="#7FFDFD" transform="translate(97.616943359375,70.73046875)"/>
<path d="M0 0 C7.60493526 -0.22690716 14.82895321 0.65390687 22.34765625 1.75 C23.60009628 1.92756836 24.85253632 2.10513672 26.14292908 2.28808594 C29.44296578 2.75708929 32.74213945 3.23144388 36.04101562 3.70849609 C39.41927079 4.19565028 42.79854434 4.67563148 46.17773438 5.15625 C52.78610578 6.09761831 59.39343164 7.04606457 66 8 C68.76463734 21.65451632 71.51808408 35.30785059 73.94067383 49.02783203 C74.32454162 51.19291695 74.7179649 53.35615349 75.11132812 55.51953125 C75.36255061 56.93219016 75.61322487 58.34494671 75.86328125 59.7578125 C76.08282471 60.9864502 76.30236816 62.21508789 76.52856445 63.48095703 C77.00913933 67.06822077 77.2553303 70.38742511 77 74 C74.5625 75.8125 74.5625 75.8125 72 77 C71.67 77.66 71.34 78.32 71 79 C71.53625 79.226875 72.0725 79.45375 72.625 79.6875 C75.91251435 81.50428425 78.39371058 83.27248782 81 86 C80.75798508 91.24099846 79.12809721 95.70644516 77.05859375 100.46484375 C76.77146011 101.14301651 76.48432648 101.82118927 76.18849182 102.51991272 C75.27924302 104.66250711 74.35860753 106.79998089 73.4375 108.9375 C72.8149928 110.39876398 72.1932405 111.86034981 71.57226562 113.32226562 C70.05687705 116.88528976 68.53126419 120.44377147 67 124 C53.33214692 124.09225513 53.33214692 124.09225513 47.1875 123.5 C46.19105469 123.4071875 45.19460937 123.314375 44.16796875 123.21875 C43.45253906 123.1465625 42.73710938 123.074375 42 123 C41.67 125.97 41.34 128.94 41 132 C39.68 131.67 38.36 131.34 37 131 C37.309375 130.29875 37.61875 129.5975 37.9375 128.875 C39.2674499 125.55295814 39.2674499 125.55295814 40 120 C48.25 120.66 56.5 121.32 65 122 C65.99 118.7 66.98 115.4 68 112 C68.7107691 110.17273296 69.45629142 108.35787631 70.26171875 106.5703125 C70.65810547 105.673125 71.05449219 104.7759375 71.46289062 103.8515625 C72.29002382 102.00997089 73.11817445 100.16883595 73.94726562 98.328125 C74.53604492 96.99394531 74.53604492 96.99394531 75.13671875 95.6328125 C75.49467529 94.83762207 75.85263184 94.04243164 76.22143555 93.22314453 C77.22035057 90.76339082 77.22035057 90.76339082 77 87 C75.02492102 85.05399943 75.02492102 85.05399943 72.5 83.375 C70.96884038 82.29279151 69.46016358 81.17624288 68 80 C68 79.34 68 78.68 68 78 C67.34 77.67 66.68 77.34 66 77 C71.75 73 71.75 73 74 73 C71.51943668 56.98990104 68.80991882 41.03101625 65.93115234 25.08837891 C65.80310211 24.37383545 65.67505188 23.65929199 65.54312134 22.9230957 C65.19310629 20.97003185 64.8402956 19.0174696 64.48730469 17.06494141 C64 14 64 14 64 11 C56.66872782 9.98454572 49.3348536 8.98922699 42 8 C40.0499707 7.73533936 40.0499707 7.73533936 38.06054688 7.46533203 C34.61986297 6.99910299 31.17827969 6.53999617 27.7361145 6.08483887 C26.38222123 5.9048549 25.02859577 5.72284338 23.67526245 5.53869629 C12.8736244 4.04238852 12.8736244 4.04238852 2 4 C1.34 4.66 0.68 5.32 0 6 C-1.125 2.25 -1.125 2.25 0 0 Z " fill="#060D0D" transform="translate(45,5)"/>
<path d="M0 0 C2.63421381 1.81909859 5.14389832 3.72735221 7.6328125 5.7421875 C8.58285156 6.50144531 9.53289062 7.26070313 10.51171875 8.04296875 C12.99357606 10.35810588 14.50010523 12.44259286 16.0703125 15.4296875 C13.09030269 17.79478855 10.05022126 19.58428398 6.66796875 21.3203125 C5.61794678 21.86212158 4.5679248 22.40393066 3.48608398 22.9621582 C2.37950439 23.52894287 1.2729248 24.09572754 0.1328125 24.6796875 C-2.12536429 25.84434603 -4.38318022 27.00970452 -6.640625 28.17578125 C-8.26629395 29.01471924 -8.26629395 29.01471924 -9.92480469 29.87060547 C-15.29584124 32.65736525 -20.62049357 35.52704668 -25.9296875 38.4296875 C-25.7853125 39.5434375 -25.6409375 40.6571875 -25.4921875 41.8046875 C-24.88165998 46.67146405 -24.404302 51.54793835 -23.9296875 56.4296875 C-19.9696875 56.7596875 -16.0096875 57.0896875 -11.9296875 57.4296875 C-11.9296875 59.4096875 -11.9296875 61.3896875 -11.9296875 63.4296875 C-12.2596875 62.1096875 -12.5896875 60.7896875 -12.9296875 59.4296875 C-16.8896875 59.0996875 -20.8496875 58.7696875 -24.9296875 58.4296875 C-26.27627324 55.06322314 -27.29765778 52.32188664 -28.0546875 48.8671875 C-28.22226563 48.12339844 -28.38984375 47.37960938 -28.5625 46.61328125 C-28.9296875 44.4296875 -28.9296875 44.4296875 -28.9296875 40.4296875 C-30.9096875 40.9246875 -30.9096875 40.9246875 -32.9296875 41.4296875 C-33.96559088 40.36075532 -34.98302692 39.27390262 -35.9921875 38.1796875 C-36.56066406 37.57640625 -37.12914062 36.973125 -37.71484375 36.3515625 C-38.9296875 34.4296875 -38.9296875 34.4296875 -38.703125 32.3046875 C-37.79225527 30.09651845 -36.78942599 28.91747829 -34.9296875 27.4296875 C-34.2696875 27.4296875 -33.6096875 27.4296875 -32.9296875 27.4296875 C-33.2596875 24.7896875 -33.5896875 22.1496875 -33.9296875 19.4296875 C-33.35114014 19.07253662 -32.77259277 18.71538574 -32.17651367 18.34741211 C-30.45711561 17.28559699 -28.73806982 16.2232113 -27.01928711 15.16040039 C-25.08248844 13.96364879 -23.14449571 12.7688275 -21.20532227 11.57592773 C-15.1556924 7.85015505 -15.1556924 7.85015505 -9.2265625 3.9375 C-8.28296875 3.29554687 -7.339375 2.65359375 -6.3671875 1.9921875 C-5.58214844 1.43660156 -4.79710937 0.88101563 -3.98828125 0.30859375 C-1.9296875 -0.5703125 -1.9296875 -0.5703125 0 0 Z M-5.45703125 4.37109375 C-6.51470703 4.99479858 -6.51470703 4.99479858 -7.59375 5.63110352 C-8.34398438 6.08026123 -9.09421875 6.52941895 -9.8671875 6.9921875 C-10.62902344 7.44456787 -11.39085938 7.89694824 -12.17578125 8.36303711 C-22.0887078 13.70737508 -22.0887078 13.70737508 -30.9296875 20.4296875 C-30.77518993 25.96783117 -29.60639432 31.17600612 -27.9296875 36.4296875 C-24.09519038 34.96945236 -20.49184972 33.23862366 -16.8515625 31.34765625 C-15.69011719 30.74501953 -14.52867188 30.14238281 -13.33203125 29.52148438 C-12.73116699 29.20816162 -12.13030273 28.89483887 -11.51123047 28.57202148 C-9.7003114 27.62793931 -7.88744063 26.68769721 -6.07421875 25.74804688 C0.36155632 22.40215498 6.75816855 19.00387158 13.0703125 15.4296875 C11.26271966 11.45172506 8.98760834 9.43150994 5.5703125 6.6796875 C4.590625 5.88046875 3.6109375 5.08125 2.6015625 4.2578125 C-0.9398241 1.7001444 -1.93944256 2.28638075 -5.45703125 4.37109375 Z " fill="#64ACAC" transform="translate(96.9296875,67.5703125)"/>
<path d="M0 0 C1.59765625 2.46875 1.59765625 2.46875 3.0625 5.5 C4.45761101 8.47854807 4.45761101 8.47854807 6 11 C6.99 11.33 7.98 11.66 9 12 C7.53680191 15.41412888 5.93003857 17.69235524 3 20 C-0.53125 20.4609375 -0.53125 20.4609375 -4.5 20.375 C-5.8096875 20.36210937 -7.119375 20.34921875 -8.46875 20.3359375 C-12 20 -12 20 -16 18 C-15.34 12.39 -14.68 6.78 -14 1 C-3.01087084 -1.45809468 -3.01087084 -1.45809468 0 0 Z " fill="#57FAFA" transform="translate(51,130)"/>
<path d="M0 0 C0.99 0.66 1.98 1.32 3 2 C2.18958252 2.41773682 1.37916504 2.83547363 0.54418945 3.26586914 C-2.52969532 4.85104262 -5.60302986 6.43727368 -8.67602539 8.02416992 C-9.99352263 8.70426651 -11.31122344 9.38396893 -12.62915039 10.06323242 C-21.46901262 14.61975812 -30.26063797 19.25318354 -39 24 C-38.855625 25.11375 -38.71125 26.2275 -38.5625 27.375 C-37.95197248 32.24177655 -37.4746145 37.11825085 -37 42 C-33.04 42.33 -29.08 42.66 -25 43 C-25 44.98 -25 46.96 -25 49 C-25.33 47.68 -25.66 46.36 -26 45 C-29.96 44.67 -33.92 44.34 -38 44 C-39.34658574 40.63353564 -40.36797028 37.89219914 -41.125 34.4375 C-41.29257813 33.69371094 -41.46015625 32.94992188 -41.6328125 32.18359375 C-42 30 -42 30 -42 26 C-43.32 26.33 -44.64 26.66 -46 27 C-47.98 24.69 -49.96 22.38 -52 20 C-51.01 20 -50.02 20 -49 20 C-48.525625 20.515625 -48.05125 21.03125 -47.5625 21.5625 C-47.046875 22.036875 -46.53125 22.51125 -46 23 C-42.15854725 22.5187043 -38.7856104 20.54231678 -35.375 18.8125 C-34.70855469 18.47734375 -34.04210937 18.1421875 -33.35546875 17.796875 C-22.12125918 12.09029421 -11.07229696 6.01270338 0 0 Z " fill="#256A6A" transform="translate(110,82)"/>
<path d="M0 0 C2.96575394 3.47709083 5.01540239 6.89432815 7 11 C7.57967529 10.87882813 8.15935059 10.75765625 8.7565918 10.6328125 C11.39919401 10.08342593 14.04330146 9.54164897 16.6875 9 C17.59951172 8.80921875 18.51152344 8.6184375 19.45117188 8.421875 C20.33740234 8.24140625 21.22363281 8.0609375 22.13671875 7.875 C22.94842529 7.70742187 23.76013184 7.53984375 24.59643555 7.3671875 C27.10061865 6.9846287 29.47075502 6.93701491 32 7 C31.67 7.99 31.34 8.98 31 10 C28.58424393 10.50478485 26.16755639 11.00397642 23.75 11.5 C23.06808594 11.64308594 22.38617188 11.78617188 21.68359375 11.93359375 C18.35366879 12.61251049 15.41667449 13 12 13 C11.9175 13.7425 11.835 14.485 11.75 15.25 C10.8405398 18.58468741 9.76266666 19.94773334 7 22 C5.68 21.67 4.36 21.34 3 21 C5.97 17.535 5.97 17.535 9 14 C7.68 13.67 6.36 13.34 5 13 C3.296875 10.27734375 3.296875 10.27734375 1.75 6.9375 C1.22921875 5.83277344 0.7084375 4.72804687 0.171875 3.58984375 C-0.21484375 2.73519531 -0.6015625 1.88054687 -1 1 C-0.67 0.67 -0.34 0.34 0 0 Z " fill="#040E0E" transform="translate(51,128)"/>
<path d="M0 0 C0.99 0.66 1.98 1.32 3 2 C-0.87302018 4.00936658 -4.74675717 6.01734319 -8.62109375 8.02416992 C-9.93215206 8.70349875 -11.24303175 9.38317242 -12.55371094 10.06323242 C-21.66327206 14.78942945 -30.80796598 19.43601718 -40 24 C-40.66 23.34 -41.32 22.68 -42 22 C-41.14664063 21.58492187 -40.29328125 21.16984375 -39.4140625 20.7421875 C-26.082173 14.19293325 -13.05089467 7.08716167 0 0 Z " fill="#2B7373" transform="translate(110,82)"/>
<path d="M0 0 C0.33 0.99 0.66 1.98 1 3 C0.67 3.66 0.34 4.32 0 5 C-8.39802254 5.12190678 -16.64251778 4.84327749 -25 4 C-25.33 6.97 -25.66 9.94 -26 13 C-27.32 12.67 -28.64 12.34 -30 12 C-29.690625 11.29875 -29.38125 10.5975 -29.0625 9.875 C-27.7325501 6.55295814 -27.7325501 6.55295814 -27 1 C-18.75 1.66 -10.5 2.32 -2 3 C-2 2.34 -2 1.68 -2 1 C-1.34 0.67 -0.68 0.34 0 0 Z " fill="#010202" transform="translate(112,124)"/>
<path d="M0 0 C3.20447453 1.2324902 6.19180946 2.69527744 9.25 4.25 C9.10946128 6.87538284 8.96281053 9.50017427 8.8125 12.125 C8.77318359 12.87136719 8.73386719 13.61773437 8.69335938 14.38671875 C8.36328125 20.0234375 8.36328125 20.0234375 7.25 22.25 C4.28 22.25 1.31 22.25 -1.75 22.25 C-1.75 21.92 -1.75 21.59 -1.75 21.25 C0.56 21.25 2.87 21.25 5.25 21.25 C5.31058594 20.51394531 5.37117188 19.77789062 5.43359375 19.01953125 C5.51738281 18.04371094 5.60117188 17.06789063 5.6875 16.0625 C5.76871094 15.09957031 5.84992188 14.13664062 5.93359375 13.14453125 C6.22666151 10.46350398 6.67703754 7.8837014 7.25 5.25 C6.63511719 5.05664062 6.02023438 4.86328125 5.38671875 4.6640625 C4.17435547 4.27347656 4.17435547 4.27347656 2.9375 3.875 C2.13699219 3.61976562 1.33648437 3.36453125 0.51171875 3.1015625 C-1.75 2.25 -1.75 2.25 -4.75 0.25 C-2.75 -0.75 -2.75 -0.75 0 0 Z " fill="#42BDBD" transform="translate(79.75,102.75)"/>
<path d="M0 0 C3.71239622 1.30650854 6.60011505 3.92084806 9.625 6.375 C11.06746094 7.53128906 11.06746094 7.53128906 12.5390625 8.7109375 C14.77232343 10.78822465 15.91219597 12.19730492 17 15 C12.16327567 12.94012446 8.62966122 9.26685975 4.75390625 5.80078125 C2.16077651 3.6785526 2.16077651 3.6785526 -0.72265625 4.35546875 C-1.47417969 4.56816406 -2.22570312 4.78085938 -3 5 C-3.66 4.34 -4.32 3.68 -5 3 C-2.75 1.375 -2.75 1.375 0 0 Z " fill="#65AEAE" transform="translate(95,67)"/>
<path d="M0 0 C2.72675159 2.40689803 4.11966596 4.92471023 5.6875 8.1875 C6.34298828 9.53908203 6.34298828 9.53908203 7.01171875 10.91796875 C7.33785156 11.60503906 7.66398437 12.29210937 8 13 C7.01 13.33 6.02 13.66 5 14 C1.535 8.06 1.535 8.06 -2 2 C-1.34 1.34 -0.68 0.68 0 0 Z " fill="#4BD7D7" transform="translate(53,126)"/>
<path d="M0 0 C-0.33 0.99 -0.66 1.98 -1 3 C-2.56116819 3.33951619 -4.12401338 3.67132544 -5.6875 4 C-6.99267578 4.2784375 -6.99267578 4.2784375 -8.32421875 4.5625 C-10.93712964 4.98972047 -13.35813038 5.07616201 -16 5 C-15.67 4.01 -15.34 3.02 -15 2 C-13.43883181 1.66048381 -11.87598662 1.32867456 -10.3125 1 C-9.44238281 0.814375 -8.57226562 0.62875 -7.67578125 0.4375 C-5.06287036 0.01027953 -2.64186962 -0.07616201 0 0 Z " fill="#091B1B" transform="translate(83,135)"/>
<path d="M0 0 C0.99 0.495 0.99 0.495 2 1 C2 2.32 2 3.64 2 5 C5.96 5.33 9.92 5.66 14 6 C14 7.98 14 9.96 14 12 C13.67 10.68 13.34 9.36 13 8 C12.14535156 7.93941406 11.29070312 7.87882812 10.41015625 7.81640625 C8.75306641 7.69072266 8.75306641 7.69072266 7.0625 7.5625 C5.96035156 7.48128906 4.85820313 7.40007812 3.72265625 7.31640625 C1 7 1 7 0 6 C-0.04080783 4.00041636 -0.04254356 1.99954746 0 0 Z " fill="#226262" transform="translate(71,119)"/>
<path d="M0 0 C2.95749791 3.46741134 5.07848152 6.86873527 7 11 C7.99 11 8.98 11 10 11 C10 12.65 10 14.3 10 16 C9.67 15.34 9.34 14.68 9 14 C8.38640625 13.91878906 7.7728125 13.83757812 7.140625 13.75390625 C5 13 5 13 3.296875 10.27734375 C2.78640625 9.17519531 2.2759375 8.07304687 1.75 6.9375 C1.22921875 5.83277344 0.7084375 4.72804687 0.171875 3.58984375 C-0.21484375 2.73519531 -0.6015625 1.88054687 -1 1 C-0.67 0.67 -0.34 0.34 0 0 Z " fill="#153D3D" transform="translate(51,128)"/>
<path d="M0 0 C1.32 0.33 2.64 0.66 4 1 C4.33 3.31 4.66 5.62 5 8 C1.73045798 7.43628586 0.17424117 6.50037734 -2 4 C-1.34 2.68 -0.68 1.36 0 0 Z " fill="#78F7F7" transform="translate(62,98)"/>
<path d="M0 0 C1.98 0.66 3.96 1.32 6 2 C6.33 4.31 6.66 6.62 7 9 C6.01 9.495 6.01 9.495 5 10 C4.34 8.02 3.68 6.04 3 4 C2.401875 4.165 1.80375 4.33 1.1875 4.5 C-1 5 -1 5 -4 5 C-2.68 3.35 -1.36 1.7 0 0 Z " fill="#5DA4A4" transform="translate(62,95)"/>
<path d="M0 0 C3.33135891 0.59699131 5.21275667 1.72012281 7.75 3.9375 C8.36359375 4.46214844 8.9771875 4.98679687 9.609375 5.52734375 C11 7 11 7 11 9 C8.03469503 7.64199529 5.70868729 6.07571737 3.25 3.9375 C2.63640625 3.41027344 2.0228125 2.88304688 1.390625 2.33984375 C0.93171875 1.89769531 0.4728125 1.45554687 0 1 C0 0.67 0 0.34 0 0 Z " fill="#61A6A6" transform="translate(101,73)"/>
<path d="M0 0 C0.7425 0.61875 1.485 1.2375 2.25 1.875 C4.48801188 3.60437281 6.43739987 4.86106661 9 6 C7.02 6.99 7.02 6.99 5 8 C3.02 5.69 1.04 3.38 -1 1 C-0.67 0.67 -0.34 0.34 0 0 Z " fill="#2C7A7A" transform="translate(59,101)"/>
<path d="M0 0 C1.98 0.66 3.96 1.32 6 2 C5.67 2.99 5.34 3.98 5 5 C2.9375 5.6875 2.9375 5.6875 1 6 C0.67 4.02 0.34 2.04 0 0 Z " fill="#71E7E7" transform="translate(68,98)"/>
<path d="M0 0 C0.33 0 0.66 0 1 0 C1 2.31 1 4.62 1 7 C2.32 7.66 3.64 8.32 5 9 C3.02 9 1.04 9 -1 9 C-1.09765625 2.84765625 -1.09765625 2.84765625 -1 1 C-0.67 0.67 -0.34 0.34 0 0 Z " fill="#010303" transform="translate(34,141)"/>
<path d="M0 0 C-2.38573379 1.89213369 -4.07175348 3.02391783 -7 4 C-7.66 3.34 -8.32 2.68 -9 2 C-3.375 -1.125 -3.375 -1.125 0 0 Z " fill="#2F7B7B" transform="translate(96,92)"/>
</svg>
