<?xml version="1.0" encoding="UTF-8" standalone="no"?>
<!-- Created with Inkscape (http://www.inkscape.org/) -->

<svg
   width="48"
   height="48"
   viewBox="0 0 12.7 12.7"
   version="1.1"
   id="svg1"
   sodipodi:docname="tag.svg"
   inkscape:version="1.3 (0e150ed6c4, 2023-07-21)"
   inkscape:export-filename="tag.svg"
   inkscape:export-xdpi="96"
   inkscape:export-ydpi="96"
   xmlns:inkscape="http://www.inkscape.org/namespaces/inkscape"
   xmlns:sodipodi="http://sodipodi.sourceforge.net/DTD/sodipodi-0.dtd"
   xmlns="http://www.w3.org/2000/svg"
   xmlns:svg="http://www.w3.org/2000/svg">
  <sodipodi:namedview
     id="namedview1"
     pagecolor="#ffffff"
     bordercolor="#000000"
     borderopacity="0.25"
     inkscape:showpageshadow="2"
     inkscape:pageopacity="0.0"
     inkscape:pagecheckerboard="true"
     inkscape:deskcolor="#d1d1d1"
     inkscape:document-units="mm"
     inkscape:zoom="5.9936588"
     inkscape:cx="50.970536"
     inkscape:cy="62.482703"
     inkscape:window-width="1507"
     inkscape:window-height="1033"
     inkscape:window-x="19"
     inkscape:window-y="8"
     inkscape:window-maximized="0"
     inkscape:current-layer="layer1" />
  <defs
     id="defs1" />
  <g
     inkscape:groupmode="layer"
     id="layer1"
     inkscape:label="Layer 1"
     style="opacity:1">
    <path
       style="fill:#a0c0c0;stroke:#a0c0c0;stroke-width:0.30144;stroke-opacity:0.76862746;fill-opacity:0.76862746"
       id="path7"
       d="M 2.959097,4.6971672 C 4.3826713,4.3582885 5.7774439,3.8332783 7.1629135,3.288393 7.9797343,2.9704147 8.7852411,2.6012092 9.6100324,2.3199241 9.9297496,2.2108829 10.03333,2.1851875 10.338771,2.098353 c 0,0 -0.286735,-0.2641584 -0.286735,-0.2641584 v 0 C 9.6513038,1.9647168 9.2525639,2.1024935 8.8576515,2.2620454 8.2133371,2.5223588 7.5784149,2.8222432 6.9334537,3.07989 6.6618524,3.1881659 6.3912909,3.3011774 6.1186499,3.4047335 5.1043804,3.7899666 4.0760776,4.1386504 3.0323606,4.3506131 2.9067419,4.3761581 2.7801261,4.3920181 2.6540084,4.4127602 Z" />
    <path
       style="fill:#a0c0c0;stroke:#a0c0c0;stroke-width:0.355892;stroke-opacity:0.76862746;fill-opacity:0.76862746"
       id="path8"
       d="m 1.8011225,9.3400758 c 0.06246,-0.00797 0.1252019,-0.010377 0.1873888,-0.023886 0.1259384,-0.02761 0.2512053,-0.065171 0.3766632,-0.099638 C 3.2353861,8.9774134 4.0976876,8.6556143 4.9625306,8.3571654 5.7706065,8.0660341 6.5841347,7.8336961 7.3951214,7.5743316 7.7577182,7.4583682 8.1196296,7.334902 8.4821584,7.2181826 9.1677551,6.997441 9.8539328,6.7831183 10.539627,6.5634588 c 0.267817,-0.085685 0.535636,-0.1713322 0.803454,-0.2569835 0,0 -0.230327,-0.303252 -0.230327,-0.303252 v 0 C 10.851309,6.0972096 10.589864,6.1911754 10.328421,6.2851487 9.4154323,6.5980328 9.2317716,6.6687875 8.2857055,6.9587291 7.0988768,7.3224533 5.9065712,7.6240171 4.7247024,8.0441293 3.7246845,8.3829134 2.7088207,8.7899839 1.6934719,8.9164169 c -0.065571,0.00797 -0.1314015,0.00445 -0.1971028,0.00704 z" />
    <path
       style="fill:#a0c0c0;stroke:#a0c0c0;stroke-width:0.367504;stroke-opacity:0.76862746;fill-opacity:0.76862746"
       id="path9"
       d="m 3.7071383,1.8164809 c 0.1868996,0.5141771 0.3952559,1.0276695 0.5338487,1.5458733 0.086182,0.3222597 0.1611475,0.6453224 0.2239694,0.9689241 0.073464,0.3784178 0.1231712,0.7578889 0.1847667,1.1368359 0.2572693,1.9018905 0.3457543,3.8084925 0.3496547,5.7143588 -0.00191,0.143595 -0.00375,0.287195 -0.00553,0.43079 0,0 0.5918499,0.14994 0.5918499,0.14994 v 0 C 5.5756264,11.616557 5.5658509,11.469918 5.5559174,11.323278 5.4233261,9.4063895 5.2770847,7.4897369 5.0751487,5.5742973 5.0050416,5.0226335 4.8945687,4.0675876 4.7832564,3.4953557 4.7413106,3.2797412 4.6770491,3.0653444 4.6212991,2.8505092 4.558578,2.6088033 4.4959358,2.3670925 4.4329579,2.1254014 4.4213063,2.0803657 4.4058433,2.0355369 4.3922958,1.9906008 Z" />
    <path
       style="fill:#a0c0c0;fill-rule:nonzero;stroke:#a0c0c0;stroke-width:0.370747;stroke-linecap:butt;stroke-linejoin:miter;stroke-dasharray:none;stroke-opacity:0.76862746;fill-opacity:0.76862746"
       id="path10"
       d="m 7.5397319,1.4355859 c 0.3068219,0.8820308 0.4225052,1.7767225 0.5688297,2.667461 0.2296707,1.5864928 0.3290736,3.176604 0.3634878,4.7666818 0.00323,0.4781802 0.00343,0.2564063 3.973e-4,0.6653226 0,0 0.6413869,0.1584017 0.6413869,0.1584017 v 0 C 9.0796311,9.2755118 9.0983053,9.5019959 9.0574076,9.0140103 8.9217876,7.4172329 8.7766348,5.820639 8.6067801,4.2246284 8.5125822,3.3512592 8.4352838,2.4758298 8.2423767,1.6060132 Z" />
  </g>
</svg>
